<svg width="16" height="16" viewBox="0 0 16 16" fill="none" xmlns="http://www.w3.org/2000/svg">
<path fill-rule="evenodd" clip-rule="evenodd" d="M4.64592 7.00024C4.01304 7.00024 3.5 7.51329 3.5 8.14616V12.8543C3.5 13.4872 4.01304 14.0002 4.64592 14.0002H6.5V10.5002C6.5 9.94796 6.94772 9.50024 7.5 9.50024H8.5C9.05228 9.50024 9.5 9.94796 9.5 10.5002V14.0002H11.3541C11.987 14.0002 12.5 13.4872 12.5 12.8543V8.14616C12.5 7.51329 11.987 7.00024 11.3541 7.00024H4.64592Z" fill="#0AB2F0"/>
<path d="M7.65109 2.34023C7.84525 2.15107 8.15477 2.15107 8.34893 2.34023L14.0474 7.89215C14.3687 8.2052 14.1471 8.75028 13.6985 8.75028H2.30151C1.85291 8.75028 1.63128 8.2052 1.95259 7.89215L7.65109 2.34023Z" fill="#0AB2F0"/>
</svg>
