<svg width="12" height="13" viewBox="0 0 12 13" fill="none" xmlns="http://www.w3.org/2000/svg">
<g clip-path="url(#clip0_101_1785)">
<path d="M10 1.5H2C1.17157 1.5 0.5 2.17157 0.5 3V11C0.5 11.8284 1.17157 12.5 2 12.5H10C10.8284 12.5 11.5 11.8284 11.5 11V3C11.5 2.17157 10.8284 1.5 10 1.5Z" stroke="#0AB2F0"/>
<path d="M3 0.5C3 0.223858 3.22386 0 3.5 0C3.77614 0 4 0.223858 4 0.5V2.5C4 2.77614 3.77614 3 3.5 3C3.22386 3 3 2.77614 3 2.5V0.5Z" fill="#0AB2F0"/>
<path d="M0 4H12V5H0V4Z" fill="#0AB2F0"/>
<path d="M8 0.5C8 0.223858 8.22386 0 8.5 0C8.77614 0 9 0.223858 9 0.5V2.5C9 2.77614 8.77614 3 8.5 3C8.22386 3 8 2.77614 8 2.5V0.5Z" fill="#0AB2F0"/>
</g>
<defs>
<clipPath id="clip0_101_1785">
<rect width="12" height="13" fill="white"/>
</clipPath>
</defs>
</svg>
