<svg width="100" height="80" viewBox="0 0 100 80" fill="none" xmlns="http://www.w3.org/2000/svg">
<path opacity="0.2" d="M58.592 9.90481C56.4117 8.58105 52.8492 8.99635 51.3405 9.36947C44.381 11.0906 41.6069 17.0103 39.3195 21.7311C37.0321 26.4519 32.2627 26.1599 28.7099 26.1599C25.1572 26.1599 20.8257 27.1819 18.9764 31.3674C17.127 35.5528 16.5916 42.6096 21.5071 50.5425C25.4395 56.8888 24.6056 62.4986 23.6971 64.5102H84.1913L86.0407 59.0594C90.7615 43.875 87.4521 41.4416 87.4521 35.9421C87.4521 30.4427 91.9295 29.0313 92.6595 24.1645C93.3896 19.2977 91.606 16.1547 90 14.5C88.3939 12.8453 85.0674 12.2895 82.926 13.1169C80.7846 13.9442 76.2585 17.2537 70.467 16.5236C64.6755 15.7936 61.3174 11.5595 58.592 9.90481Z" fill="url(#paint0_linear_139_1526)"/>
<ellipse cx="54.1145" cy="65.4345" rx="36.4036" ry="1.5087" fill="#3A3F4A"/>
<path fill-rule="evenodd" clip-rule="evenodd" d="M34.5511 24.7969C33.0459 24.7969 31.8257 26.0171 31.8257 27.5223V64.6072H39.5151V64.6074H72.9013V30.8318C72.9013 29.3266 71.6811 28.1064 70.1759 28.1064H42.7876L41.6646 26.1602C41.1778 25.3166 40.2779 24.7969 39.3039 24.7969H34.5511Z" fill="#A28FFF"/>
<path fill-rule="evenodd" clip-rule="evenodd" d="M35.0374 24.7969C33.5322 24.7969 32.312 26.0171 32.312 27.5223V64.6072H40.0015V64.6074H73.3876V30.8318C73.3876 29.3266 72.1674 28.1064 70.6622 28.1064H43.2739L42.1509 26.1602C41.6641 25.3166 40.7642 24.7969 39.7903 24.7969H35.0374Z" fill="url(#paint1_linear_139_1526)"/>
<path d="M62.3982 23.47L68.1203 20.1663L75.0778 22.0305C77.5702 22.6983 79.0493 25.2602 78.3814 27.7527L73.7964 44.8641L57.8132 40.5814L62.3982 23.47Z" fill="url(#paint2_linear_139_1526)"/>
<path d="M62.3982 23.4699L68.1203 20.1663L66.9111 24.6792L62.3982 23.4699Z" fill="#B1D0FA"/>
<path d="M68.2601 38.9261L68.2927 38.8043C68.5143 38.0117 68.7628 37.4004 69.0384 36.9703C69.3182 36.5415 69.638 36.2195 69.998 36.0045C70.3579 35.7895 70.7686 35.6155 71.2302 35.4827C71.5301 35.389 71.8096 35.2692 72.0685 35.1233C72.3275 34.9774 72.5517 34.7902 72.7412 34.5616C72.9307 34.3329 73.0679 34.0605 73.1526 33.7443C73.2545 33.3639 73.2529 33.0108 73.1479 32.6849C73.0428 32.359 72.8608 32.0812 72.6017 31.8515C72.348 31.6186 72.0396 31.4535 71.6763 31.3562C71.3473 31.268 71.0148 31.2522 70.679 31.3088C70.3432 31.3654 70.0381 31.5127 69.7637 31.7506C69.4903 31.9843 69.278 32.3236 69.1267 32.7686L67.178 32.2464C67.414 31.4852 67.7825 30.8877 68.2835 30.454C68.7856 30.016 69.3682 29.7392 70.0312 29.6237C70.6986 29.5094 71.3912 29.5484 72.1092 29.7408C72.8955 29.9515 73.5441 30.2833 74.0548 30.7362C74.5667 31.1848 74.9146 31.7155 75.0986 32.3281C75.2879 32.9377 75.2893 33.5908 75.1026 34.2874C74.9744 34.766 74.7839 35.1776 74.5313 35.5222C74.2798 35.8624 73.9751 36.1449 73.6171 36.3696C73.2635 36.5955 72.8634 36.7723 72.4169 36.9C71.993 37.0292 71.6351 37.1852 71.3434 37.3681C71.0559 37.5522 70.8162 37.7971 70.6243 38.103C70.4324 38.4088 70.2664 38.8063 70.1261 39.2955L70.0935 39.4173L68.2601 38.9261ZM68.1837 43.083C67.8333 42.9891 67.5652 42.7844 67.3795 42.469C67.1949 42.1493 67.1502 41.8121 67.2452 41.4573C67.3391 41.1069 67.5453 40.8415 67.8639 40.6612C68.1836 40.4767 68.5187 40.4313 68.8691 40.5252C69.2152 40.618 69.4806 40.8242 69.6652 41.1439C69.8552 41.4605 69.9033 41.794 69.8094 42.1444C69.7464 42.3795 69.6287 42.5792 69.4564 42.7438C69.2895 42.9052 69.0944 43.0178 68.8712 43.0816C68.6479 43.1455 68.4188 43.1459 68.1837 43.083Z" fill="white"/>
<path d="M38.7348 38.1847C39.195 36.4883 40.7347 35.3105 42.4925 35.3105H77.544C80.109 35.3105 81.9731 37.7477 81.3016 40.2232L74.9451 63.6582C74.715 64.5064 73.9451 65.0953 73.0663 65.0953H33.9806C32.6981 65.0953 31.7661 63.8767 32.1018 62.639L38.7348 38.1847Z" fill="#7C70FF"/>
<path d="M39.3034 38.8571C39.7668 37.1652 41.3043 35.9922 43.0585 35.9922H77.5307C80.0997 35.9922 81.9645 38.4364 81.2859 40.9141L75.055 63.6631C74.8233 64.5091 74.0545 65.0956 73.1774 65.0956H34.6683C33.3838 65.0956 32.4514 63.8735 32.7908 62.6346L39.3034 38.8571Z" fill="url(#paint3_linear_139_1526)"/>
<circle cx="64.7597" cy="49.9853" r="8.10056" fill="#F7F7F7" fill-opacity="0.05" stroke="url(#paint4_linear_139_1526)" stroke-width="2"/>
<path d="M71.1304 56.3555L75.2256 60.4507" stroke="url(#paint5_linear_139_1526)" stroke-width="2" stroke-linecap="round"/>
<path d="M62.1812 47.4053L67.3568 52.5809" stroke="white" stroke-width="2" stroke-linecap="round"/>
<path d="M62.1812 52.5811L67.3568 47.4054" stroke="white" stroke-width="2" stroke-linecap="round"/>
<path d="M73.8604 59.0859L77.5006 62.7262" stroke="url(#paint6_linear_139_1526)" stroke-width="4" stroke-linecap="round"/>
<path d="M22.1885 18.9568C22.1885 17.6129 23.2779 16.5234 24.6219 16.5234H28.2233V21.3902H24.6219C23.2779 21.3902 22.1885 20.3008 22.1885 18.9568V18.9568Z" fill="#3057E2"/>
<path d="M28.0812 16.6734H48.6637C49.9248 16.6734 50.9471 17.6957 50.9471 18.9568C50.9471 20.2179 49.9248 21.2402 48.6637 21.2402H28.0812V16.6734Z" fill="white" stroke="#3057E2" stroke-width="0.3"/>
<circle cx="25.1091" cy="18.6648" r="0.778686" fill="#F7F7F7" fill-opacity="0.05" stroke="white" stroke-width="0.389343"/>
<path opacity="0.75" d="M25.7905 19.3457L26.2285 19.7837" stroke="white" stroke-width="0.389343" stroke-linecap="round"/>
<path d="M26.0825 19.6377L26.4719 20.027" stroke="white" stroke-width="0.778686" stroke-linecap="round"/>
<path d="M13.5002 66.8094L14.4735 66.4688L15.3009 66.8094L14.4735 68.7075L13.1108 68.3181L13.5002 66.8094Z" fill="#F09990"/>
<path d="M14.4736 68.4643L13.2569 68.1236C13.0136 68.0555 12.8676 68.367 12.4296 68.805C11.9915 69.243 10.7262 69.4863 10.5315 69.4863C10.3368 69.4863 10.1908 69.7297 10.5315 69.9243C10.8722 70.119 12.8189 70.6057 13.2082 70.6544C13.5976 70.703 13.9383 70.849 14.0356 70.6057C14.1329 70.3623 14.4736 69.0483 14.5709 68.805C14.6488 68.6103 14.5385 68.4967 14.4736 68.4643Z" fill="#1B499F"/>
<path d="M7.4165 68.0262L9.02254 67.3936L9.70389 68.9023L7.85451 69.1456L7.4165 68.0262Z" fill="#EAA096"/>
<path d="M21.5789 55.4215C22.9416 55.694 26.5592 59.2014 28.1977 60.921C28.5384 61.359 29.2197 62.4102 29.2197 63.111C29.2197 63.9871 27.9057 65.6418 26.2997 65.1551C25.0148 64.7657 21.4167 61.0021 19.7782 59.1689C19.762 59.2987 19.5056 59.9282 18.6101 61.4077C17.7147 62.8872 15.9334 66.0798 15.1547 67.4911L13.208 67.1991C13.3216 66.7773 13.7434 65.3692 14.522 63.111C15.4954 60.2883 17.0041 57.0275 17.6855 56.2975C18.3668 55.5675 19.8755 55.0808 21.5789 55.4215Z" fill="url(#paint7_linear_139_1526)"/>
<path d="M34.9626 61.1159C34.7679 60.8726 33.8433 61.0672 32.9186 61.1159C32.2859 61.0348 30.4462 60.9212 28.1491 61.1159C25.2777 61.3592 21.3843 61.6999 20.2649 61.8946C19.1455 62.0893 18.5129 62.4299 16.4201 63.3546C14.3274 64.2793 9.31464 66.81 9.02263 67.0047C8.73063 67.1994 8.77929 67.1994 8.87663 67.4914C8.97397 67.7834 9.41198 69.0001 9.50931 69.1461C9.60665 69.2921 9.50931 69.4868 9.89866 69.3894C10.2101 69.3116 17.3935 67.1832 20.9463 66.1287C24.7424 66.3234 29.7552 66.372 31.9939 65.934C34.2326 65.496 34.9626 64.4253 35.206 63.452C35.4493 62.4786 35.1573 61.3592 34.9626 61.1159Z" fill="url(#paint8_linear_139_1526)"/>
<path d="M7.90324 69C7.86431 68.8832 7.65991 68.3673 7.56257 68.1239C7.56257 68.0753 7.53337 67.9682 7.41657 67.9293C7.27057 67.8806 6.78389 67.8806 6.0052 67.4913C5.22651 67.1019 4.83717 66.6152 4.69116 66.6152C4.54516 66.6152 4.39916 66.6152 4.59383 67.0532C4.7885 67.4913 5.66452 69.584 5.81053 69.8273C5.95653 70.0707 6.0052 70.168 6.24854 70.0707C6.49188 69.9733 7.65991 69.438 7.85458 69.3406C8.04925 69.2433 7.95191 69.146 7.90324 69Z" fill="#1948A0"/>
<path d="M30.1438 46.1745L30.3871 44.3738L32.1391 42.2324L33.3072 43.1084L32.8205 47.8292C32.35 47.959 31.1561 48.2186 30.1438 48.2186C28.8784 48.2186 28.7324 46.1745 29.1704 46.1745H30.1438Z" fill="#EC9F97"/>
<path d="M29.9491 47.8295C29.2094 47.557 29.3813 46.6128 29.5598 46.1748C27.6131 46.1748 26.9804 47.6348 26.5424 48.7055C26.1044 49.7762 25.5203 51.6256 25.6177 51.8689C25.6956 52.0636 26.6884 52.599 27.1751 52.8423C27.3697 54.1077 27.8077 53.9617 28.0997 55.373C28.3918 56.7844 27.6617 58.6825 27.3211 59.8505C26.9804 61.0185 27.2237 61.1158 27.9537 61.3105C28.6838 61.5052 35.1079 61.5539 35.1079 61.1158C35.1079 60.6778 35.0106 59.5098 34.7186 58.3904C34.4266 57.2711 34.3779 55.4704 34.6212 54.7404C34.8159 54.1563 35.1241 52.745 35.2539 52.1123C35.2864 52.1447 35.361 52.2583 35.3999 52.453C35.4486 52.6963 36.0813 52.599 36.6166 52.453C37.152 52.307 37.9307 52.1123 37.9307 51.8689C37.9307 51.6256 37.7847 50.7009 37.2493 49.4842C36.714 48.2675 36.5193 47.8295 35.8866 47.2942C35.3805 46.8659 34.2806 47.1157 33.7939 47.2942C32.8205 47.5862 30.6889 48.1021 29.9491 47.8295Z" fill="white"/>
<path d="M36.4221 55.0319C36.1496 54.37 35.7732 53.1987 35.5948 52.5985C35.5948 52.5985 35.7855 52.6235 35.9355 52.5985C36.2275 52.5498 36.3717 52.5176 36.6168 52.4525C37.3499 52.2578 37.7848 52.0632 37.7848 52.0632C38.4175 54.4966 38.3202 55.5186 38.0282 56.1026C37.7362 56.6866 36.8115 57.0273 34.6214 57.8546C32.8694 58.5165 30.8416 59.2011 30.0467 59.4607C30.0953 59.8014 29.9493 60.1907 29.56 60.58C29.2485 60.8915 29.0084 60.872 28.9273 60.8234V60.58C29.1609 60.3075 29.3166 59.9474 29.3653 59.8014L28.6353 60.58C28.4731 60.4665 28.1389 60.1518 28.0999 59.8014C28.061 59.4509 28.6353 59.0713 28.9273 58.9253C30.7572 57.6405 34.6863 55.7944 36.4221 55.0319Z" fill="#EC9F97"/>
<path d="M24.9365 56.1026L25.7152 51.9658C25.7152 51.9658 26.1046 52.3065 27.1752 52.8418C27.2726 53.5232 27.5646 53.9612 27.5646 53.9612L26.4939 57.2706L24.9365 56.1026Z" fill="#EC9F97"/>
<path d="M31.8477 44.0342C31.4973 44.3067 30.6959 44.602 30.339 44.7155L30.2417 45.3482C30.9425 45.0757 31.6044 44.3586 31.8477 44.0342Z" fill="#E77E7B"/>
<path d="M33.3078 41.5034C33.3078 43.2236 31.5071 44.7642 29.8037 44.7642C29.0737 44.7642 28.2017 42.7688 28.2017 41.5034C28.2017 39.6054 28.3907 38.3887 29.9497 38.3887C31.5087 38.3887 33.3078 39.7832 33.3078 41.5034Z" fill="#EC9F97"/>
<path d="M28.1976 40.725C28.1976 40.0631 28.5869 39.7029 28.7816 39.6056C29.8036 40.9683 30.777 40.8223 31.6044 41.309C32.4317 41.7956 32.7237 42.4283 32.7237 43.5477C32.7237 44.6671 32.1884 45.5431 31.7017 46.2731C31.215 47.0031 30.8743 47.6845 31.1177 48.5605C31.361 49.4365 32.1397 50.1665 33.4051 50.6045C34.6704 51.0425 36.4711 51.1399 36.8605 50.8479C37.2498 50.5559 37.0065 49.7772 36.8605 49.2418C36.7145 48.7065 37.1038 46.4678 37.1038 45.6891C37.1038 44.9104 36.9092 44.5697 36.1791 43.8884C35.4491 43.207 35.4004 42.8663 35.1571 41.9903C34.9138 41.1143 34.7191 40.1409 34.2324 39.2649C33.7457 38.3889 32.7724 37.2695 31.069 37.2695C29.7063 37.2695 28.9763 38.0807 28.7816 38.4862C28.0029 39.0216 28.0029 39.8976 28.0029 40.2869C28.0029 40.5984 28.1327 40.7087 28.1976 40.725Z" fill="url(#paint9_linear_139_1526)"/>
<rect x="23.3828" y="60.9238" width="9.53891" height="0.584015" rx="0.194672" fill="#4C53BB"/>
<path d="M17.2197 55.4237C17.1165 55.1678 17.3049 54.8887 17.5808 54.8887H26.4327C26.5915 54.8887 26.7343 54.9851 26.7937 55.1324L29.1497 60.9725C29.253 61.2284 29.0646 61.5075 28.7887 61.5075H19.9368C19.778 61.5075 19.6351 61.4111 19.5757 61.2638L17.2197 55.4237Z" fill="#5B8CE2"/>
<path d="M17.2235 55.6198C17.1187 55.3636 17.3071 55.083 17.5838 55.083H26.2814C26.4395 55.083 26.5819 55.1786 26.6418 55.3249L28.9513 60.9704C29.0561 61.2266 28.8677 61.5072 28.5909 61.5072H19.8934C19.7353 61.5072 19.5929 61.4116 19.533 61.2652L17.2235 55.6198Z" fill="url(#paint10_linear_139_1526)"/>
<path d="M23.4953 58.4476C23.6064 58.8631 23.5161 59.2263 23.106 59.2263C22.7039 59.2263 22.341 58.8631 22.2299 58.4476C22.1189 58.0321 22.2514 57.6953 22.6616 57.6953C23.0086 57.6953 23.3843 58.0321 23.4953 58.4476Z" fill="url(#paint11_linear_139_1526)"/>
<rect x="83.5078" y="60.5674" width="5.91365" height="1.02846" rx="0.257115" fill="url(#paint12_linear_139_1526)"/>
<path d="M84.2791 58.3815C85.1019 59.2556 85.2219 60.2027 85.179 60.5669H87.6216C87.7502 60.1598 88.2901 59.1142 89.4214 58.1886L89.4541 58.1619C90.8622 57.0099 92.5755 55.6081 93.1496 54.3962C93.7281 53.1749 93.8567 51.825 93.1496 51.6965C92.4425 51.5679 91.2212 52.4035 90.3856 52.4035C89.55 52.4035 89.1643 52.0178 89.2929 51.1822C89.4214 50.3466 90.5785 49.8966 91.0284 49.6395C91.4784 49.3824 91.7355 48.4182 91.0284 48.0968C90.3213 47.7754 89.1643 48.4182 88.7144 48.4182C88.2644 48.4182 88.1359 47.6469 88.4573 46.9398C88.7786 46.2328 88.9072 45.3971 88.9072 44.8186C88.9072 44.2401 87.8787 43.9187 87.236 44.8186C86.5932 45.7185 86.3361 47.0684 86.3361 48.0968C86.3361 49.1253 85.629 48.4825 85.179 48.0968C84.7291 47.7112 84.2791 47.5183 83.7649 47.6469C83.2507 47.7754 83.3792 48.8039 83.7649 49.4467C84.1506 50.0895 85.0505 51.6322 84.9219 52.4035C84.7934 53.1749 84.5362 53.3034 84.022 53.1106C83.5078 52.9178 82.6079 51.9536 82.3508 53.6891C82.0937 55.4246 83.2507 57.2887 84.2791 58.3815Z" fill="url(#paint13_linear_139_1526)"/>
<path d="M86.3361 57.0963L86.0147 60.5674H86.6575L86.9789 55.6179L91.3499 53.4325L86.9789 55.1037L87.3003 50.2828L89.1001 49.3186L87.3003 50.0257L87.6217 46.1689L86.7861 51.8898L85.3719 50.0257L86.7861 52.3397L86.3361 56.6464L83.7007 54.2038L86.3361 57.0963Z" fill="#DFF1FF"/>
<path d="M83.8936 61.5957H89.0359L88.7401 64.6516C88.6891 65.1788 88.2461 65.581 87.7164 65.581H85.213C84.6833 65.581 84.2403 65.1788 84.1893 64.6516L83.8936 61.5957Z" fill="url(#paint14_linear_139_1526)"/>
<defs>
<linearGradient id="paint0_linear_139_1526" x1="42.5803" y1="9.85615" x2="66.2329" y2="64.5102" gradientUnits="userSpaceOnUse">
<stop stop-color="#D0DFEB"/>
<stop offset="1" stop-color="#A9BDCD" stop-opacity="0.5"/>
</linearGradient>
<linearGradient id="paint1_linear_139_1526" x1="39.6609" y1="25.6242" x2="44.041" y2="42.2686" gradientUnits="userSpaceOnUse">
<stop stop-color="#6F55E9"/>
<stop offset="1" stop-color="#4D1FA2"/>
</linearGradient>
<linearGradient id="paint2_linear_139_1526" x1="77.2317" y1="22.5585" x2="62.1933" y2="37.7428" gradientUnits="userSpaceOnUse">
<stop stop-color="#87CFFF"/>
<stop offset="1" stop-color="#5376F0"/>
</linearGradient>
<linearGradient id="paint3_linear_139_1526" x1="43.1643" y1="36.9169" x2="57.3753" y2="65.0956" gradientUnits="userSpaceOnUse">
<stop offset="0.337927" stop-color="#531ABA"/>
<stop offset="1" stop-color="#7C71FF"/>
</linearGradient>
<linearGradient id="paint4_linear_139_1526" x1="57.5742" y1="42.955" x2="71.4967" y2="56.8776" gradientUnits="userSpaceOnUse">
<stop stop-color="#E0F2FF"/>
<stop offset="1" stop-color="#5B82F4"/>
</linearGradient>
<linearGradient id="paint5_linear_139_1526" x1="71.6005" y1="58.1195" x2="72.8944" y2="56.8256" gradientUnits="userSpaceOnUse">
<stop offset="0.104167" stop-color="white"/>
<stop offset="0.973958" stop-color="#B1B1B1"/>
</linearGradient>
<linearGradient id="paint6_linear_139_1526" x1="74.1364" y1="62.1568" x2="76.8795" y2="59.4137" gradientUnits="userSpaceOnUse">
<stop stop-color="#85CCFE"/>
<stop offset="1" stop-color="#5376F0"/>
</linearGradient>
<linearGradient id="paint7_linear_139_1526" x1="18.9543" y1="57.5142" x2="15.2069" y2="67.5398" gradientUnits="userSpaceOnUse">
<stop stop-color="#6FB1FF"/>
<stop offset="1" stop-color="#3F7CC5"/>
</linearGradient>
<linearGradient id="paint8_linear_139_1526" x1="20.9984" y1="63.6953" x2="22.0205" y2="68.1727" gradientUnits="userSpaceOnUse">
<stop offset="0.0885417" stop-color="#80C5FE"/>
<stop offset="1" stop-color="#3381E8"/>
</linearGradient>
<linearGradient id="paint9_linear_139_1526" x1="30.1965" y1="38.0969" x2="33.6032" y2="46.3218" gradientUnits="userSpaceOnUse">
<stop stop-color="#3860ED"/>
<stop offset="1" stop-color="#22479D"/>
</linearGradient>
<linearGradient id="paint10_linear_139_1526" x1="26.5463" y1="55.083" x2="20.4628" y2="61.5072" gradientUnits="userSpaceOnUse">
<stop stop-color="#2850AE"/>
<stop offset="1" stop-color="#6755DB"/>
</linearGradient>
<linearGradient id="paint11_linear_139_1526" x1="23.0423" y1="57.6624" x2="22.5069" y2="59.2198" gradientUnits="userSpaceOnUse">
<stop stop-color="white"/>
<stop offset="1" stop-color="white" stop-opacity="0"/>
</linearGradient>
<linearGradient id="paint12_linear_139_1526" x1="89.4475" y1="61.055" x2="83.4613" y2="61.055" gradientUnits="userSpaceOnUse">
<stop stop-color="#143E8B"/>
<stop offset="1" stop-color="#3359E0"/>
</linearGradient>
<linearGradient id="paint13_linear_139_1526" x1="87.9737" y1="44.2578" x2="87.9737" y2="60.5669" gradientUnits="userSpaceOnUse">
<stop stop-color="#73D5FF"/>
<stop offset="1" stop-color="#365EEC"/>
</linearGradient>
<linearGradient id="paint14_linear_139_1526" x1="84.0941" y1="63.2936" x2="88.8635" y2="63.2936" gradientUnits="userSpaceOnUse">
<stop stop-color="#B2DFFF"/>
<stop offset="1" stop-color="#82ADD9"/>
</linearGradient>
</defs>
</svg>
